<svg width="362" height="272" viewBox="0 0 362 272" fill="none" xmlns="http://www.w3.org/2000/svg">
<path d="M6 196.463C64.7758 139.645 115.506 79.4209 143.322 36.5776C171.139 -6.26566 123.604 3.52724 106.468 36.5776C89.3322 69.628 114.449 121.887 128.886 179.325C143.322 236.763 78.7279 216.142 90.9754 179.325C103.223 142.508 130.529 116.426 143.322 109.081C156.115 101.737 178.65 82.4339 186.631 143.356C193.149 192.544 174.894 307.007 180.763 247.027C186.631 187.047 288.106 62.115 250.246 112.471C212.385 162.827 222.037 147.162 236.279 191.566C241.443 207.668 240.269 223.298 264.565 200.135C260.542 195.308 257.879 188.474 256.724 180.738M269.202 132.151C275.237 124.575 283.446 118.594 294.024 115.673C298.961 114.326 300.223 119.021 299.658 138.46C302.918 109.901 296.577 107.957 269.202 132.151ZM269.202 132.151C258.165 146.006 254.402 165.192 256.724 180.738M269.202 132.151C260.351 144.784 256.223 153.197 256.724 180.738M256.724 180.738C263.256 210.691 274.015 206.717 299.658 180.738C307.055 165.123 309.856 152.666 311.16 120.287C311.493 168.514 311.254 197.141 325.597 192.979C336.275 188.252 342.581 168.563 354 124.241" stroke="black" stroke-width="15"/>
</svg>
